<svg xmlns="http://www.w3.org/2000/svg" xmlns:xlink="http://www.w3.org/1999/xlink" version="1.1" width="256" height="256" viewBox="0 0 256 256" xml:space="preserve">

<defs>
</defs>
<g style="stroke: none; stroke-width: 0; stroke-dasharray: none; stroke-linecap: butt; stroke-linejoin: miter; stroke-miterlimit: 10; fill: none; fill-rule: nonzero; opacity: 1;" transform="translate(1.4065934065934016 1.4065934065934016) scale(2.81 2.81)" >
	<path d="M 52.801 45.405 c -0.201 0 -0.403 -0.061 -0.576 -0.183 L 45 40.134 l -7.226 5.088 c -0.35 0.249 -0.82 0.243 -1.168 -0.012 c -0.346 -0.254 -0.491 -0.702 -0.36 -1.111 l 2.691 -8.398 l -7.06 -5.196 c -0.348 -0.256 -0.492 -0.707 -0.357 -1.117 s 0.518 -0.688 0.95 -0.688 h 8.739 l 2.843 -8.459 C 44.189 19.834 44.57 19.56 45 19.56 s 0.811 0.274 0.948 0.682 l 2.843 8.459 h 8.739 c 0.432 0 0.815 0.277 0.95 0.688 s -0.01 0.861 -0.357 1.118 l -7.061 5.195 l 2.69 8.398 c 0.131 0.409 -0.014 0.856 -0.36 1.111 C 53.217 45.34 53.009 45.405 52.801 45.405 z" style="stroke: none; stroke-width: 1; stroke-dasharray: none; stroke-linecap: butt; stroke-linejoin: miter; stroke-miterlimit: 10; fill: rgb(250,180,0); fill-rule: nonzero; opacity: 1;" transform=" matrix(1 0 0 1 0 0) " stroke-linecap="round" />
	<path d="M 68.669 45.405 c -0.208 0 -0.416 -0.065 -0.592 -0.194 c -0.347 -0.254 -0.491 -0.702 -0.36 -1.111 l 2.69 -8.398 l -7.06 -5.196 C 63 30.25 62.855 29.799 62.99 29.389 s 0.519 -0.688 0.95 -0.688 h 8.738 l 2.843 -8.459 c 0.137 -0.407 0.519 -0.682 0.948 -0.682 s 0.811 0.274 0.948 0.681 l 2.844 8.459 H 89 c 0.432 0 0.815 0.277 0.95 0.688 s -0.01 0.861 -0.357 1.117 l -7.06 5.196 l 2.69 8.398 c 0.131 0.409 -0.014 0.856 -0.36 1.111 c -0.346 0.254 -0.816 0.26 -1.168 0.012 l -7.226 -5.088 l -7.225 5.088 C 69.072 45.344 68.87 45.405 68.669 45.405 z" style="stroke: none; stroke-width: 1; stroke-dasharray: none; stroke-linecap: butt; stroke-linejoin: miter; stroke-miterlimit: 10; fill: rgb(250,180,0); fill-rule: nonzero; opacity: 1;" transform=" matrix(1 0 0 1 0 0) " stroke-linecap="round" />
	<path d="M 5.729 45.405 c -0.208 0 -0.416 -0.065 -0.592 -0.194 c -0.346 -0.254 -0.491 -0.702 -0.36 -1.111 l 2.691 -8.398 l -7.06 -5.196 c -0.348 -0.256 -0.492 -0.707 -0.357 -1.117 S 0.568 28.701 1 28.701 h 8.739 l 2.843 -8.459 c 0.137 -0.407 0.518 -0.682 0.948 -0.682 s 0.811 0.274 0.948 0.682 l 2.843 8.459 h 8.739 c 0.432 0 0.815 0.277 0.95 0.688 S 27 30.25 26.652 30.506 l -7.06 5.196 l 2.691 8.398 c 0.131 0.409 -0.014 0.856 -0.36 1.111 c -0.348 0.254 -0.817 0.259 -1.168 0.012 l -7.226 -5.088 l -7.226 5.088 C 6.131 45.344 5.93 45.405 5.729 45.405 z" style="stroke: none; stroke-width: 1; stroke-dasharray: none; stroke-linecap: butt; stroke-linejoin: miter; stroke-miterlimit: 10; fill: rgb(250,180,0); fill-rule: nonzero; opacity: 1;" transform=" matrix(1 0 0 1 0 0) " stroke-linecap="round" />
	<path d="M 37.066 70.439 c -0.202 0 -0.403 -0.061 -0.576 -0.183 l -7.225 -5.089 l -7.226 5.089 c -0.35 0.248 -0.82 0.244 -1.168 -0.012 c -0.346 -0.254 -0.491 -0.701 -0.36 -1.11 l 2.69 -8.398 l -7.06 -5.195 c -0.348 -0.257 -0.492 -0.707 -0.357 -1.117 c 0.135 -0.411 0.518 -0.688 0.95 -0.688 h 8.739 l 2.844 -8.459 c 0.137 -0.407 0.518 -0.681 0.948 -0.681 l 0 0 c 0.43 0 0.811 0.274 0.948 0.681 l 2.843 8.459 h 8.739 c 0.432 0 0.815 0.277 0.95 0.688 c 0.135 0.41 -0.009 0.86 -0.357 1.117 l -7.06 5.195 l 2.69 8.398 c 0.131 0.409 -0.014 0.856 -0.36 1.11 C 37.482 70.375 37.274 70.439 37.066 70.439 z" style="stroke: none; stroke-width: 1; stroke-dasharray: none; stroke-linecap: butt; stroke-linejoin: miter; stroke-miterlimit: 10; fill: rgb(250,180,0); fill-rule: nonzero; opacity: 1;" transform=" matrix(1 0 0 1 0 0) " stroke-linecap="round" />
	<path d="M 52.934 70.439 c -0.208 0 -0.416 -0.064 -0.592 -0.194 c -0.347 -0.254 -0.491 -0.701 -0.36 -1.11 l 2.69 -8.398 l -7.06 -5.195 c -0.348 -0.257 -0.492 -0.707 -0.357 -1.117 c 0.135 -0.411 0.519 -0.688 0.95 -0.688 h 8.739 l 2.843 -8.459 c 0.137 -0.407 0.519 -0.681 0.948 -0.681 s 0.812 0.274 0.948 0.681 l 2.843 8.459 h 8.738 c 0.432 0 0.815 0.277 0.95 0.688 c 0.135 0.41 -0.01 0.86 -0.357 1.117 l -7.06 5.195 l 2.69 8.398 c 0.131 0.409 -0.014 0.856 -0.36 1.11 c -0.347 0.256 -0.816 0.26 -1.168 0.012 l -7.225 -5.089 l -7.226 5.089 C 53.337 70.379 53.135 70.439 52.934 70.439 z" style="stroke: none; stroke-width: 1; stroke-dasharray: none; stroke-linecap: butt; stroke-linejoin: miter; stroke-miterlimit: 10; fill: rgb(250,180,0); fill-rule: nonzero; opacity: 1;" transform=" matrix(1 0 0 1 0 0) " stroke-linecap="round" />
</g>
</svg>